<?xml version="1.0" encoding="utf-8"?>
<!-- Generator: Adobe Illustrator 22.1.0, SVG Export Plug-In . SVG Version: 6.00 Build 0)  -->
<svg version="1.1" id="Layer_1" xmlns:serif="http://www.serif.com/"
	 xmlns="http://www.w3.org/2000/svg" xmlns:xlink="http://www.w3.org/1999/xlink" x="0px" y="0px" viewBox="0 0 595.3 841.9"
	 style="enable-background:new 0 0 595.3 841.9;" xml:space="preserve">
<style type="text/css">
	.st0{fill:#2D323B;}
	.st1{fill:#73BC07;}
</style>
<circle class="st0" cx="297.3" cy="425" r="297.9"/>
<g id="KHbfGw.tif">
	<g>
		<path class="st1" d="M336.2,296.4c21.9,0.9,43.4,4.8,64.4,11.1c15.2,4.6,23.1,1.7,31.9-11.8c3.5-5.4,6.9-10.8,10.3-16.2
			c1.9-3,4-6,8-3.1c3.4,2.5,5.1,5.9,2.4,9.8c-3.6,5.3-7.3,10.5-11.4,15.5c-10.7,13.2-16.5,26.5-9,44.3c10.8,25.4,6.4,51-4.2,75.7
			c-6.7,15.7-11.3,32.1-23,45.9c-24,28.5-55,43.8-89.9,52.9c-24.1,6.3-49.1,7.3-73.7,10.9c-20.3,3-36.7,10.6-49.7,27.6
			c-14.9,19.4-18.8,18.1-28.4-4.4c-31.2-73.3-10.5-156.8,50.6-207.9c25.9-21.6,53.8-38.7,86.9-46.3
			C312.8,297.8,324.5,296.8,336.2,296.4z"/>
	</g>
</g>
</svg>
