<?xml version="1.0" encoding="utf-8"?>
<!-- Generator: Adobe Illustrator 22.1.0, SVG Export Plug-In . SVG Version: 6.00 Build 0)  -->
<svg version="1.1" id="Layer_1" xmlns="http://www.w3.org/2000/svg" xmlns:xlink="http://www.w3.org/1999/xlink" x="0px" y="0px"
	 viewBox="0 0 16 16" style="enable-background:new 0 0 16 16;" xml:space="preserve">
<style type="text/css">
	.st0{fill:#F6F6F6;fill-opacity:0;}
	.st1{fill:#54B1D7;}
</style>
<path id="canvas" class="st0" d="M0,0l16,0v16H0L0,0z"/>
<path id="outline" class="st0" d="M1.5,1h6.1l1,2h4.9C14.3,3,15,3.7,15,4.5v8c0,0.8-0.7,1.5-1.5,1.5h-12C0.7,14,0,13.3,0,12.5l0-10
	C0,1.7,0.7,1,1.5,1z"/>
<path id="iconBg" class="st1" d="M1,2.5v10C1,12.8,1.2,13,1.5,13h12c0.3,0,0.5-0.2,0.5-0.5v-8C14,4.2,13.8,4,13.5,4H8L7,2H1.5
	C1.2,2,1,2.2,1,2.5z"/>
</svg>
